<svg viewBox="0 0 1920 1080" xmlns="http://www.w3.org/2000/svg">
  <defs>
    <linearGradient id="cozyInteriorGradient" x1="0%" y1="0%" x2="0%" y2="100%">
      <stop offset="0%" style="stop-color:#8B0000;stop-opacity:1" />
      <stop offset="100%" style="stop-color:#A52A2A;stop-opacity:1" />
    </linearGradient>
    <radialGradient id="candleGlow" cx="50%" cy="50%">
      <stop offset="0%" style="stop-color:#FFD700;stop-opacity:0.8" />
      <stop offset="50%" style="stop-color:#FFA500;stop-opacity:0.4" />
      <stop offset="100%" style="stop-color:#FF8C00;stop-opacity:0" />
    </radialGradient>
  </defs>
  
  <rect width="1920" height="1080" fill="url(#cozyInteriorGradient)"/>
  
  <!-- Elegant dining table -->
  <rect x="0" y="650" width="1920" height="430" fill="#8B4513" opacity="0.4"/>
  
  <!-- Tablecloth with pattern -->
  <rect x="200" y="650" width="1520" height="430" fill="#FFFFFF" opacity="0.9"/>
  <rect x="200" y="650" width="1520" height="30" fill="#C41E3A" opacity="0.3"/>
  <rect x="200" y="700" width="1520" height="30" fill="#C41E3A" opacity="0.3"/>
  
  <!-- Christmas centerpiece -->
  <g transform="translate(960, 700)">
    <!-- Wreath base -->
    <circle cx="0" cy="0" r="100" fill="#0F5132" opacity="0.9"/>
    <circle cx="0" cy="0" r="80" fill="#1A6B40" opacity="0.8"/>
    <circle cx="0" cy="0" r="50" fill="none" stroke="#8B4513" stroke-width="30" opacity="0.7"/>
    
    <!-- Pine details on wreath -->
    <circle cx="-70" cy="-70" r="15" fill="#0F5132"/>
    <circle cx="70" cy="-70" r="15" fill="#0F5132"/>
    <circle cx="-70" cy="70" r="15" fill="#0F5132"/>
    <circle cx="70" cy="70" r="15" fill="#0F5132"/>
    <circle cx="-100" cy="0" r="15" fill="#0F5132"/>
    <circle cx="100" cy="0" r="15" fill="#0F5132"/>
    <circle cx="0" cy="-100" r="15" fill="#0F5132"/>
    <circle cx="0" cy="100" r="15" fill="#0F5132"/>
    
    <!-- Red berries -->
    <circle cx="-60" cy="-80" r="6" fill="#C41E3A"/>
    <circle cx="-75" cy="-65" r="6" fill="#C41E3A"/>
    <circle cx="60" cy="-80" r="6" fill="#C41E3A"/>
    <circle cx="75" cy="-65" r="6" fill="#C41E3A"/>
    <circle cx="-80" cy="60" r="6" fill="#C41E3A"/>
    <circle cx="80" cy="60" r="6" fill="#C41E3A"/>
    <circle cx="-90" cy="-20" r="6" fill="#C41E3A"/>
    <circle cx="90" cy="-20" r="6" fill="#C41E3A"/>
    
    <!-- Gold bow -->
    <ellipse cx="-25" cy="-110" rx="30" ry="20" fill="#FFD700" opacity="0.9" transform="rotate(-30 -25 -110)"/>
    <ellipse cx="25" cy="-110" rx="30" ry="20" fill="#FFD700" opacity="0.9" transform="rotate(30 25 -110)"/>
    <circle cx="0" cy="-110" r="15" fill="#FFA500"/>
    
    <!-- Candles in center -->
    <g transform="translate(-40, 0)">
      <rect x="-6" y="-50" width="12" height="50" fill="#FFFAF0"/>
      <ellipse cx="0" cy="-50" rx="6" ry="3" fill="#FFF8DC"/>
      <path d="M 0 -55 Q -4 -65 0 -72 Q 4 -65 0 -55" fill="#FF4500" opacity="0.9"/>
      <ellipse cx="0" cy="-62" rx="8" ry="12" fill="url(#candleGlow)" opacity="0.6"/>
    </g>
    <g transform="translate(0, 0)">
      <rect x="-6" y="-60" width="12" height="60" fill="#FFFAF0"/>
      <ellipse cx="0" cy="-60" rx="6" ry="3" fill="#FFF8DC"/>
      <path d="M 0 -65 Q -4 -75 0 -82 Q 4 -75 0 -65" fill="#FF4500" opacity="0.9"/>
      <ellipse cx="0" cy="-72" rx="8" ry="12" fill="url(#candleGlow)" opacity="0.6"/>
    </g>
    <g transform="translate(40, 0)">
      <rect x="-6" y="-55" width="12" height="55" fill="#FFFAF0"/>
      <ellipse cx="0" cy="-55" rx="6" ry="3" fill="#FFF8DC"/>
      <path d="M 0 -60 Q -4 -70 0 -77 Q 4 -70 0 -60" fill="#FF4500" opacity="0.9"/>
      <ellipse cx="0" cy="-67" rx="8" ry="12" fill="url(#candleGlow)" opacity="0.6"/>
    </g>
  </g>
  
  <!-- Elegant place settings -->
  <g transform="translate(400, 850)">
    <!-- Plate -->
    <ellipse cx="0" cy="0" rx="70" ry="15" fill="#E0E0E0" opacity="0.5"/>
    <ellipse cx="0" cy="-5" rx="65" ry="13" fill="#FFFFFF"/>
    <ellipse cx="0" cy="-8" rx="50" ry="10" fill="#FFD700" opacity="0.3"/>
    
    <!-- Silverware -->
    <rect x="-100" y="-8" width="8" height="60" rx="2" fill="#C0C0C0"/>
    <ellipse cx="-96" cy="-12" rx="12" ry="8" fill="#C0C0C0"/>
    <rect x="92" y="-8" width="8" height="60" rx="2" fill="#C0C0C0"/>
    <path d="M 96 -15 L 90 -8 L 90 -5 L 96 -5 L 102 -5 L 102 -8 Z" fill="#C0C0C0"/>
    <line x1="93" y1="-8" x2="93" y2="-15" stroke="#A9A9A9" stroke-width="1.5"/>
    <line x1="96" y1="-8" x2="96" y2="-17" stroke="#A9A9A9" stroke-width="1.5"/>
    <line x1="99" y1="-8" x2="99" y2="-15" stroke="#A9A9A9" stroke-width="1.5"/>
    
    <!-- Wine glass -->
    <path d="M 0 -60 L -5 -20 L 5 -20 Z" fill="#FFF5EE" opacity="0.6" stroke="#D3D3D3" stroke-width="1.5"/>
    <ellipse cx="0" cy="-60" rx="8" ry="3" fill="#8B0000" opacity="0.4"/>
    <rect x="-2" y="-20" width="4" height="25" fill="#D3D3D3"/>
    <ellipse cx="0" cy="5" rx="15" ry="5" fill="#D3D3D3"/>
    
    <!-- Napkin with napkin ring -->
    <rect x="-15" y="-12" width="30" height="3" fill="#C41E3A"/>
    <rect x="-20" y="-11" width="40" height="18" fill="#FFFFFF" opacity="0.9"/>
    <rect x="-18" y="-2" width="36" height="2" fill="#FFD700"/>
  </g>
  
  <g transform="translate(1520, 850)">
    <!-- Plate -->
    <ellipse cx="0" cy="0" rx="70" ry="15" fill="#E0E0E0" opacity="0.5"/>
    <ellipse cx="0" cy="-5" rx="65" ry="13" fill="#FFFFFF"/>
    <ellipse cx="0" cy="-8" rx="50" ry="10" fill="#FFD700" opacity="0.3"/>
    
    <!-- Silverware -->
    <rect x="-100" y="-8" width="8" height="60" rx="2" fill="#C0C0C0"/>
    <ellipse cx="-96" cy="-12" rx="12" ry="8" fill="#C0C0C0"/>
    <rect x="92" y="-8" width="8" height="60" rx="2" fill="#C0C0C0"/>
    <path d="M 96 -15 L 90 -8 L 90 -5 L 96 -5 L 102 -5 L 102 -8 Z" fill="#C0C0C0"/>
    
    <!-- Wine glass -->
    <path d="M 0 -60 L -5 -20 L 5 -20 Z" fill="#FFF5EE" opacity="0.6" stroke="#D3D3D3" stroke-width="1.5"/>
    <ellipse cx="0" cy="-60" rx="8" ry="3" fill="#8B0000" opacity="0.4"/>
    <rect x="-2" y="-20" width="4" height="25" fill="#D3D3D3"/>
    <ellipse cx="0" cy="5" rx="15" ry="5" fill="#D3D3D3"/>
    
    <!-- Napkin -->
    <rect x="-20" y="-11" width="40" height="18" fill="#FFFFFF" opacity="0.9"/>
    <rect x="-18" y="-2" width="36" height="2" fill="#FFD700"/>
  </g>
  
  <!-- Roasted turkey/main dish -->
  <g transform="translate(960, 900)">
    <ellipse cx="0" cy="0" rx="120" ry="25" fill="#E0E0E0" opacity="0.5"/>
    <ellipse cx="0" cy="-5" rx="115" ry="23" fill="#FFFFFF"/>
    
    <!-- Turkey -->
    <ellipse cx="0" cy="-15" rx="80" ry="30" fill="#D2691E" opacity="0.9"/>
    <ellipse cx="-40" cy="-18" rx="25" ry="15" fill="#CD853F" opacity="0.9"/>
    <ellipse cx="40" cy="-18" rx="25" ry="15" fill="#CD853F" opacity="0.9"/>
    <path d="M 0 -30 Q -10 -40 -5 -45" stroke="#8B4513" stroke-width="3" fill="none"/>
    <path d="M 0 -30 Q 10 -40 5 -45" stroke="#8B4513" stroke-width="3" fill="none"/>
    
    <!-- Garnish -->
    <circle cx="-70" cy="-10" r="8" fill="#DC143C"/>
    <circle cx="70" cy="-10" r="8" fill="#DC143C"/>
    <ellipse cx="-50" cy="-12" rx="15" ry="8" fill="#228B22" transform="rotate(-20 -50 -12)"/>
    <ellipse cx="50" cy="-12" rx="15" ry="8" fill="#228B22" transform="rotate(20 50 -12)"/>
  </g>
  
  <!-- Side dishes -->
  <g transform="translate(600, 950)">
    <ellipse cx="0" cy="0" rx="60" ry="12" fill="#E0E0E0" opacity="0.5"/>
    <ellipse cx="0" cy="-3" rx="55" ry="10" fill="#FFFFFF"/>
    <circle cx="-25" cy="-8" r="12" fill="#F0E68C"/>
    <circle cx="0" cy="-8" r="12" fill="#F0E68C"/>
    <circle cx="25" cy="-8" r="12" fill="#F0E68C"/>
  </g>
  
  <g transform="translate(1320, 950)">
    <ellipse cx="0" cy="0" rx="60" ry="12" fill="#E0E0E0" opacity="0.5"/>
    <ellipse cx="0" cy="-3" rx="55" ry="10" fill="#FFFFFF"/>
    <circle cx="-20" cy="-8" r="10" fill="#8B4513"/>
    <circle cx="0" cy="-8" r="10" fill="#8B4513"/>
    <circle cx="20" cy="-8" r="10" fill="#8B4513"/>
  </g>
  
  <!-- Snowflake decorations floating -->
  <g transform="translate(250, 300)">
    <line x1="0" y1="-12" x2="0" y2="12" stroke="#FFFFFF" stroke-width="2" opacity="0.6"/>
    <line x1="-12" y1="0" x2="12" y2="0" stroke="#FFFFFF" stroke-width="2" opacity="0.6"/>
    <line x1="-9" y1="-9" x2="9" y2="9" stroke="#FFFFFF" stroke-width="2" opacity="0.6"/>
    <line x1="9" y1="-9" x2="-9" y2="9" stroke="#FFFFFF" stroke-width="2" opacity="0.6"/>
  </g>
  
  <g transform="translate(1670, 350)">
    <line x1="0" y1="-10" x2="0" y2="10" stroke="#FFFFFF" stroke-width="2" opacity="0.5"/>
    <line x1="-10" y1="0" x2="10" y2="0" stroke="#FFFFFF" stroke-width="2" opacity="0.5"/>
    <line x1="-7" y1="-7" x2="7" y2="7" stroke="#FFFFFF" stroke-width="2" opacity="0.5"/>
    <line x1="7" y1="-7" x2="-7" y2="7" stroke="#FFFFFF" stroke-width="2" opacity="0.5"/>
  </g>
</svg>