<svg viewBox="0 0 1920 1080" xmlns="http://www.w3.org/2000/svg">
  <defs>
    <linearGradient id="elegantWeddingGradient" x1="0%" y1="0%" x2="0%" y2="100%">
      <stop offset="0%" style="stop-color:#FFF5F7;stop-opacity:1" />
      <stop offset="100%" style="stop-color:#FFE8EC;stop-opacity:1" />
    </linearGradient>
    <radialGradient id="spotlightGlow" cx="50%" cy="30%">
      <stop offset="0%" style="stop-color:#FFFFFF;stop-opacity:0.8" />
      <stop offset="50%" style="stop-color:#FFF5F7;stop-opacity:0.4" />
      <stop offset="100%" style="stop-color:#FFE8EC;stop-opacity:0" />
    </radialGradient>
  </defs>
  
  <rect width="1920" height="1080" fill="url(#elegantWeddingGradient)"/>
  
  <!-- Spotlight effect -->
  <ellipse cx="960" cy="200" rx="600" ry="400" fill="url(#spotlightGlow)"/>
  
  <!-- Elegant ballroom floor -->
  <rect x="0" y="700" width="1920" height="380" fill="#F5F5DC" opacity="0.5"/>
  
  <!-- Crystal chandelier silhouette at top -->
  <g transform="translate(960, 100)">
    <ellipse cx="0" cy="0" rx="80" ry="20" fill="#D4AF37" opacity="0.6"/>
    <rect x="-3" y="20" width="6" height="40" fill="#D4AF37" opacity="0.6"/>
    
    <!-- Crystal drops -->
    <line x1="-50" y1="60" x2="-50" y2="90" stroke="#87CEEB" stroke-width="2" opacity="0.7"/>
    <circle cx="-50" cy="95" r="5" fill="#87CEEB" opacity="0.8"/>
    <line x1="-30" y1="60" x2="-30" y2="100" stroke="#87CEEB" stroke-width="2" opacity="0.7"/>
    <circle cx="-30" cy="105" r="5" fill="#87CEEB" opacity="0.8"/>
    <line x1="-10" y1="60" x2="-10" y2="85" stroke="#87CEEB" stroke-width="2" opacity="0.7"/>
    <circle cx="-10" cy="90" r="5" fill="#87CEEB" opacity="0.8"/>
    <line x1="10" y1="60" x2="10" y2="85" stroke="#87CEEB" stroke-width="2" opacity="0.7"/>
    <circle cx="10" cy="90" r="5" fill="#87CEEB" opacity="0.8"/>
    <line x1="30" y1="60" x2="30" y2="100" stroke="#87CEEB" stroke-width="2" opacity="0.7"/>
    <circle cx="30" cy="105" r="5" fill="#87CEEB" opacity="0.8"/>
    <line x1="50" y1="60" x2="50" y2="90" stroke="#87CEEB" stroke-width="2" opacity="0.7"/>
    <circle cx="50" cy="95" r="5" fill="#87CEEB" opacity="0.8"/>
  </g>
  
  <!-- Multi-tier wedding cake -->
  <g transform="translate(960, 450)">
    <!-- Bottom tier -->
    <ellipse cx="0" cy="150" rx="180" ry="35" fill="#D3D3D3" opacity="0.3"/>
    <rect x="-170" y="50" width="340" height="100" fill="#FFFAF0"/>
    <ellipse cx="0" cy="50" rx="170" ry="32" fill="#FFF8DC"/>
    <path d="M -150 60 Q -155 70 -150 80" fill="#FFB6C1" opacity="0.8"/>
    <path d="M -100 60 Q -105 70 -100 80" fill="#FFB6C1" opacity="0.8"/>
    <path d="M -50 60 Q -55 70 -50 80" fill="#FFB6C1" opacity="0.8"/>
    <path d="M 0 60 Q -5 70 0 80" fill="#FFB6C1" opacity="0.8"/>
    <path d="M 50 60 Q 45 70 50 80" fill="#FFB6C1" opacity="0.8"/>
    <path d="M 100 60 Q 95 70 100 80" fill="#FFB6C1" opacity="0.8"/>
    <path d="M 150 60 Q 145 70 150 80" fill="#FFB6C1" opacity="0.8"/>
    
    <!-- Middle tier -->
    <rect x="-130" y="-30" width="260" height="80" fill="#FFFAF0"/>
    <ellipse cx="0" cy="-30" rx="130" ry="26" fill="#FFF8DC"/>
    <circle cx="-100" cy="-10" r="8" fill="#FF69B4"/>
    <circle cx="-70" cy="-15" r="7" fill="#FFB6C1"/>
    <circle cx="-40" cy="-10" r="8" fill="#FF1493"/>
    <circle cx="-10" cy="-15" r="7" fill="#FF69B4"/>
    <circle cx="20" cy="-10" r="8" fill="#FFB6C1"/>
    <circle cx="50" cy="-15" r="7" fill="#FF69B4"/>
    <circle cx="80" cy="-10" r="8" fill="#FF1493"/>
    <circle cx="110" cy="-15" r="7" fill="#FFB6C1"/>
    
    <!-- Top tier -->
    <rect x="-90" y="-100" width="180" height="70" fill="#FFFAF0"/>
    <ellipse cx="0" cy="-100" rx="90" ry="22" fill="#FFF8DC"/>
    <path d="M -70 -90 L -65 -70" stroke="#FFD700" stroke-width="2"/>
    <path d="M -40 -90 L -35 -70" stroke="#FFD700" stroke-width="2"/>
    <path d="M -10 -90 L -5 -70" stroke="#FFD700" stroke-width="2"/>
    <path d="M 20 -90 L 25 -70" stroke="#FFD700" stroke-width="2"/>
    <path d="M 50 -90 L 55 -70" stroke="#FFD700" stroke-width="2"/>
    
    <!-- Cake topper -->
    <g transform="translate(0, -100)">
      <!-- Two hearts -->
      <path d="M -15 -25 Q -25 -35 -25 -45 Q -25 -55 -15 -55 Q -10 -55 -5 -50 Q 0 -55 5 -55 Q 15 -55 15 -45 Q 15 -35 5 -25 L -5 -15 Z" 
            fill="#FF1493" opacity="0.9"/>
      <path d="M 5 -25 Q -5 -35 -5 -45 Q -5 -55 5 -55 Q 10 -55 15 -50 Q 20 -55 25 -55 Q 35 -55 35 -45 Q 35 -35 25 -25 L 15 -15 Z" 
            fill="#FF1493" opacity="0.9"/>
    </g>
    
    <!-- Pearl decorations -->
    <circle cx="-160" cy="80" r="6" fill="#F5F5F5"/>
    <circle cx="-150" cy="90" r="6" fill="#F5F5F5"/>
    <circle cx="-140" cy="100" r="6" fill="#F5F5F5"/>
    <circle cx="160" cy="80" r="6" fill="#F5F5F5"/>
    <circle cx="150" cy="90" r="6" fill="#F5F5F5"/>
    <circle cx="140" cy="100" r="6" fill="#F5F5F5"/>
  </g>
  
  <!-- Champagne flutes -->
  <g transform="translate(500, 750)">
    <path d="M -12 -100 L -15 -20 L 15 -20 L 12 -100 Z" fill="#FFF5EE" opacity="0.7" stroke="#D3D3D3" stroke-width="2"/>
    <ellipse cx="0" cy="-100" rx="13" ry="5" fill="#FFD700" opacity="0.4"/>
    <rect x="-3" y="-20" width="6" height="35" fill="#E8E8E8"/>
    <ellipse cx="0" cy="15" rx="18" ry="6" fill="#E8E8E8"/>
    
    <!-- Bubbles -->
    <circle cx="-5" cy="-70" r="2" fill="#FFFFFF" opacity="0.7"/>
    <circle cx="3" cy="-80" r="2" fill="#FFFFFF" opacity="0.7"/>
    <circle cx="-2" cy="-90" r="2" fill="#FFFFFF" opacity="0.7"/>
  </g>
  
  <g transform="translate(1420, 750)">
    <path d="M -12 -100 L -15 -20 L 15 -20 L 12 -100 Z" fill="#FFF5EE" opacity="0.7" stroke="#D3D3D3" stroke-width="2"/>
    <ellipse cx="0" cy="-100" rx="13" ry="5" fill="#FFD700" opacity="0.4"/>
    <rect x="-3" y="-20" width="6" height="35" fill="#E8E8E8"/>
    <ellipse cx="0" cy="15" rx="18" ry="6" fill="#E8E8E8"/>
    
    <!-- Bubbles -->
    <circle cx="-4" cy="-65" r="2" fill="#FFFFFF" opacity="0.7"/>
    <circle cx="2" cy="-85" r="2" fill="#FFFFFF" opacity="0.7"/>
  </g>
  
  <!-- Appetizer platters -->
  <g transform="translate(300, 850)">
    <ellipse cx="0" cy="0" rx="90" ry="18" fill="#E0E0E0" opacity="0.4"/>
    <ellipse cx="0" cy="-5" rx="85" ry="16" fill="#FFFFFF"/>
    
    <!-- Canapés -->
    <rect x="-60" y="-12" width="25" height="12" rx="2" fill="#FFE4B5"/>
    <circle cx="-47" cy="-8" r="4" fill="#FF6B6B"/>
    <rect x="-25" y="-12" width="25" height="12" rx="2" fill="#FFE4B5"/>
    <circle cx="-12" cy="-8" r="4" fill="#90EE90"/>
    <rect x="10" y="-12" width="25" height="12" rx="2" fill="#FFE4B5"/>
    <circle cx="22" cy="-8" r="4" fill="#FF6B6B"/>
    <rect x="45" y="-12" width="25" height="12" rx="2" fill="#FFE4B5"/>
    <circle cx="57" cy="-8" r="4" fill="#FFA07A"/>
  </g>
  
  <g transform="translate(1620, 850)">
    <ellipse cx="0" cy="0" rx="90" ry="18" fill="#E0E0E0" opacity="0.4"/>
    <ellipse cx="0" cy="-5" rx="85" ry="16" fill="#FFFFFF"/>
    
    <!-- Desserts -->
    <circle cx="-55" cy="-10" r="12" fill="#FF69B4" opacity="0.8"/>
    <circle cx="-25" cy="-10" r="12" fill="#DDA0DD" opacity="0.8"/>
    <circle cx="5" cy="-10" r="12" fill="#FFB6C1" opacity="0.8"/>
    <circle cx="35" cy="-10" r="12" fill="#FF69B4" opacity="0.8"/>
    <circle cx="65" cy="-10" r="12" fill="#DDA0DD" opacity="0.8"/>
  </g>
  
  <!-- Rose petals scattered -->
  <ellipse cx="700" cy="900" rx="8" ry="12" fill="#FFB6C1" opacity="0.7" transform="rotate(30 700 900)"/>
  <ellipse cx="850" cy="950" rx="8" ry="12" fill="#FF69B4" opacity="0.6" transform="rotate(-20 850 950)"/>
  <ellipse cx="1100" cy="920" rx="8" ry="12" fill="#FFB6C1" opacity="0.7" transform="rotate(45 1100 920)"/>
  <ellipse cx="1250" cy="960" rx="8" ry="12" fill="#FF1493" opacity="0.6" transform="rotate(-15 1250 960)"/>
  
  <!-- Decorative elements -->
  <circle cx="400" cy="350" r="4" fill="#FFD700" opacity="0.6"/>
  <circle cx="1520" cy="380" r="4" fill="#FFD700" opacity="0.6"/>
  <circle cx="600" cy="300" r="3" fill="#FFB6C1" opacity="0.7"/>
  <circle cx="1320" cy="320" r="3" fill="#FFB6C1" opacity="0.7"/>
</svg>