<svg viewBox="0 0 1920 1080" xmlns="http://www.w3.org/2000/svg">
  <defs>
    <linearGradient id="parentBirthdayGradient" x1="0%" y1="0%" x2="0%" y2="100%">
      <stop offset="0%" style="stop-color:#FFE5B4;stop-opacity:1" />
      <stop offset="100%" style="stop-color:#FFDAB9;stop-opacity:1" />
    </linearGradient>
  </defs>
  
  <rect width="1920" height="1080" fill="url(#parentBirthdayGradient)"/>
  
  <!-- Living room wall -->
  <rect x="0" y="0" width="1920" height="700" fill="#F5DEB3" opacity="0.5"/>
  
  <!-- Floor -->
  <rect x="0" y="700" width="1920" height="380" fill="#D2B48C" opacity="0.6"/>
  
  <!-- Balloon bouquet -->
  <g transform="translate(300, 350)">
    <!-- Balloons -->
    <ellipse cx="-60" cy="-100" rx="50" ry="65" fill="#FF69B4" opacity="0.9"/>
    <ellipse cx="-55" cy="-105" rx="20" ry="30" fill="#FFB6C1" opacity="0.7"/>
    <path d="M -60 -35 L -50 20" stroke="#D3D3D3" stroke-width="2"/>
    
    <ellipse cx="0" cy="-150" rx="55" ry="70" fill="#87CEEB" opacity="0.9"/>
    <ellipse cx="-5" cy="-155" rx="22" ry="32" fill="#B0E0E6" opacity="0.7"/>
    <path d="M 0 -80 L 0 20" stroke="#D3D3D3" stroke-width="2"/>
    
    <ellipse cx="60" cy="-120" rx="52" ry="67" fill="#FFD700" opacity="0.9"/>
    <ellipse cx="55" cy="-125" rx="21" ry="31" fill="#FFED4E" opacity="0.7"/>
    <path d="M 60 -53 L 50 20" stroke="#D3D3D3" stroke-width="2"/>
    
    <ellipse cx="-30" cy="-80" rx="48" ry="62" fill="#90EE90" opacity="0.9"/>
    <ellipse cx="-35" cy="-85" rx="19" ry="28" fill="#98FB98" opacity="0.7"/>
    <path d="M -30 -18 L -20 20" stroke="#D3D3D3" stroke-width="2"/>
    
    <ellipse cx="30" cy="-90" rx="50" ry="65" fill="#DDA0DD" opacity="0.9"/>
    <ellipse cx="25" cy="-95" rx="20" ry="30" fill="#E6A8D7" opacity="0.7"/>
    <path d="M 30 -25 L 20 20" stroke="#D3D3D3" stroke-width="2"/>
    
    <!-- Balloon strings tied together -->
    <circle cx="0" cy="20" r="8" fill="#FF6B6B"/>
  </g>
  
  <!-- Birthday banner -->
  <g transform="translate(960, 200)">
    <!-- String -->
    <line x1="-400" y1="0" x2="400" y2="0" stroke="#D2691E" stroke-width="3"/>
    
    <!-- Banner flags -->
    <polygon points="-350,0 -330,40 -310,0" fill="#FF69B4"/>
    <text x="-343" y="28" font-family="Arial" font-size="20" fill="#FFFFFF">H</text>
    
    <polygon points="-270,0 -250,40 -230,0" fill="#87CEEB"/>
    <text x="-263" y="28" font-family="Arial" font-size="20" fill="#FFFFFF">A</text>
    
    <polygon points="-190,0 -170,40 -150,0" fill="#FFD700"/>
    <text x="-183" y="28" font-family="Arial" font-size="20" fill="#FFFFFF">P</text>
    
    <polygon points="-110,0 -90,40 -70,0" fill="#90EE90"/>
    <text x="-103" y="28" font-family="Arial" font-size="20" fill="#FFFFFF">P</text>
    
    <polygon points="-30,0 -10,40 10,0" fill="#DDA0DD"/>
    <text x="-23" y="28" font-family="Arial" font-size="20" fill="#FFFFFF">Y</text>
    
    <polygon points="50,0 70,40 90,0" fill="#FF69B4"/>
    <text x="57" y="28" font-family="Arial" font-size="20" fill="#FFFFFF">B</text>
    
    <polygon points="130,0 150,40 170,0" fill="#87CEEB"/>
    <text x="137" y="28" font-family="Arial" font-size="20" fill="#FFFFFF">D</text>
    
    <polygon points="210,0 230,40 250,0" fill="#FFD700"/>
    <text x="217" y="28" font-family="Arial" font-size="20" fill="#FFFFFF">A</text>
    
    <polygon points="290,0 310,40 330,0" fill="#90EE90"/>
    <text x="297" y="28" font-family="Arial" font-size="20" fill="#FFFFFF">Y</text>
  </g>
  
  <!-- Birthday cake on table -->
  <g transform="translate(960, 600)">
    <!-- Table -->
    <rect x="-200" y="50" width="400" height="15" fill="#8B4513"/>
    <rect x="-190" y="65" width="380" height="8" fill="#A0522D"/>
    
    <!-- Cake -->
    <ellipse cx="0" cy="80" rx="120" ry="25" fill="#8B4513" opacity="0.3"/>
    <rect x="-110" y="0" width="220" height="80" fill="#FFE4E1"/>
    <ellipse cx="0" cy="0" rx="110" ry="22" fill="#FFB6C1"/>
    <rect x="-110" y="0" width="220" height="10" fill="#FF69B4"/>
    
    <!-- Frosting swirls -->
    <circle cx="-80" cy="45" r="12" fill="#FFB6C1"/>
    <circle cx="-40" cy="45" r="12" fill="#FFB6C1"/>
    <circle cx="0" cy="45" r="12" fill="#FFB6C1"/>
    <circle cx="40" cy="45" r="12" fill="#FFB6C1"/>
    <circle cx="80" cy="45" r="12" fill="#FFB6C1"/>
    
    <!-- Candles -->
    <g transform="translate(-60, 0)">
      <rect x="-3" y="-35" width="6" height="35" fill="#FFD700"/>
      <ellipse cx="0" cy="-35" rx="3" ry="2" fill="#FFA500"/>
      <path d="M 0 -38 Q -2 -45 0 -50 Q 2 -45 0 -38" fill="#FF4500" opacity="0.9"/>
      <ellipse cx="0" cy="-42" rx="6" ry="10" fill="#FFD700" opacity="0.3"/>
    </g>
    <g transform="translate(-20, 0)">
      <rect x="-3" y="-40" width="6" height="40" fill="#FFD700"/>
      <ellipse cx="0" cy="-40" rx="3" ry="2" fill="#FFA500"/>
      <path d="M 0 -43 Q -2 -50 0 -55 Q 2 -50 0 -43" fill="#FF4500" opacity="0.9"/>
      <ellipse cx="0" cy="-47" rx="6" ry="10" fill="#FFD700" opacity="0.3"/>
    </g>
    <g transform="translate(20, 0)">
      <rect x="-3" y="-38" width="6" height="38" fill="#FFD700"/>
      <ellipse cx="0" cy="-38" rx="3" ry="2" fill="#FFA500"/>
      <path d="M 0 -41 Q -2 -48 0 -53 Q 2 -48 0 -41" fill="#FF4500" opacity="0.9"/>
      <ellipse cx="0" cy="-45" rx="6" ry="10" fill="#FFD700" opacity="0.3"/>
    </g>
    <g transform="translate(60, 0)">
      <rect x="-3" y="-37" width="6" height="37" fill="#FFD700"/>
      <ellipse cx="0" cy="-37" rx="3" ry="2" fill="#FFA500"/>
      <path d="M 0 -40 Q -2 -47 0 -52 Q 2 -47 0 -40" fill="#FF4500" opacity="0.9"/>
      <ellipse cx="0" cy="-44" rx="6" ry="10" fill="#FFD700" opacity="0.3"/>
    </g>
  </g>
  
  <!-- Presents -->
  <g transform="translate(1550, 750)">
    <rect x="-50" y="-60" width="100" height="80" fill="#FF69B4"/>
    <rect x="-5" y="-60" width="10" height="80" fill="#FFD700"/>
    <rect x="-50" y="-15" width="100" height="10" fill="#FFD700"/>
    <path d="M 0 -60 Q -20 -80 0 -90 Q 20 -80 0 -60" fill="#FFD700"/>
    <path d="M 0 -60 Q 20 -80 0 -90 Q -20 -80 0 -60" fill="#FFA500"/>
  </g>
  
  <g transform="translate(1400, 800)">
    <rect x="-40" y="-50" width="80" height="70" fill="#87CEEB"/>
    <rect x="-4" y="-50" width="8" height="70" fill="#FF69B4"/>
    <rect x="-40" y="-12" width="80" height="8" fill="#FF69B4"/>
    <ellipse cx="0" cy="-50" rx="15" ry="8" fill="#FF69B4"/>
    <ellipse cx="-10" cy="-55" rx="10" ry="6" fill="#FFB6C1"/>
    <ellipse cx="10" cy="-55" rx="10" ry="6" fill="#FFB6C1"/>
  </g>
  
  <!-- Children's drawings on wall -->
  <g transform="translate(400, 300)">
    <rect x="0" y="0" width="150" height="120" fill="#FFFFFF" stroke="#D2691E" stroke-width="3"/>
    <!-- Stick figure family -->
    <circle cx="30" cy="35" r="12" fill="#FFD700"/>
    <line x1="30" y1="47" x2="30" y2="75" stroke="#000000" stroke-width="3"/>
    <line x1="30" y1="55" x2="20" y2="65" stroke="#000000" stroke-width="3"/>
    <line x1="30" y1="55" x2="40" y2="65" stroke="#000000" stroke-width="3"/>
    <line x1="30" y1="75" x2="20" y2="90" stroke="#000000" stroke-width="3"/>
    <line x1="30" y1="75" x2="40" y2="90" stroke="#000000" stroke-width="3"/>
    
    <circle cx="75" cy="35" r="12" fill="#FF69B4"/>
    <line x1="75" y1="47" x2="75" y2="75" stroke="#000000" stroke-width="3"/>
    <line x1="75" y1="55" x2="65" y2="65" stroke="#000000" stroke-width="3"/>
    <line x1="75" y1="55" x2="85" y2="65" stroke="#000000" stroke-width="3"/>
    <line x1="75" y1="75" x2="65" y2="90" stroke="#000000" stroke-width="3"/>
    <line x1="75" y1="75" x2="85" y2="90" stroke="#000000" stroke-width="3"/>
    
    <circle cx="120" cy="45" r="8" fill="#87CEEB"/>
    <line x1="120" y1="53" x2="120" y2="70" stroke="#000000" stroke-width="2"/>
    <line x1="120" y1="58" x2="113" y2="63" stroke="#000000" stroke-width="2"/>
    <line x1="120" y1="58" x2="127" y2="63" stroke="#000000" stroke-width="2"/>
    <line x1="120" y1="70" x2="113" y2="80" stroke="#000000" stroke-width="2"/>
    <line x1="120" y1="70" x2="127" y2="80" stroke="#000000" stroke-width="2"/>
    
    <!-- Heart -->
    <path d="M 75 10 Q 70 5 65 5 Q 55 5 55 15 Q 55 25 75 35 Q 95 25 95 15 Q 95 5 85 5 Q 80 5 75 10" fill="#FF0000"/>
  </g>
  
  <!-- Sippy cup -->
  <g transform="translate(600, 850)">
    <ellipse cx="0" cy="30" rx="30" ry="8" fill="#87CEEB" opacity="0.5"/>
    <rect x="-25" y="-20" width="50" height="50" rx="5" fill="#87CEEB" opacity="0.8"/>
    <ellipse cx="0" cy="-20" rx="25" ry="8" fill="#B0E0E6"/>
    <rect x="25" y="-10" width="20" height="8" rx="4" fill="#4682B4"/>
  </g>
  
  <!-- Toy blocks spelling "BDAY" -->
  <g transform="translate(200, 900)">
    <rect x="0" y="-40" width="40" height="40" fill="#FF6B6B"/>
    <text x="8" y="-10" font-family="Arial" font-size="28" fill="#FFFFFF" font-weight="bold">B</text>
    
    <rect x="50" y="-40" width="40" height="40" fill="#4ECDC4"/>
    <text x="58" y="-10" font-family="Arial" font-size="28" fill="#FFFFFF" font-weight="bold">D</text>
    
    <rect x="100" y="-40" width="40" height="40" fill="#FFD93D"/>
    <text x="108" y="-10" font-family="Arial" font-size="28" fill="#FFFFFF" font-weight="bold">A</text>
    
    <rect x="150" y="-40" width="40" height="40" fill="#95E1D3"/>
    <text x="158" y="-10" font-family="Arial" font-size="28" fill="#FFFFFF" font-weight="bold">Y</text>
  </g>
  
  <!-- Confetti -->
  <circle cx="500" cy="400" r="5" fill="#FF69B4" opacity="0.8"/>
  <rect x="700" y="350" width="8" height="12" fill="#87CEEB" opacity="0.8" transform="rotate(25 704 356)"/>
  <circle cx="900" cy="450" r="6" fill="#FFD700" opacity="0.8"/>
  <rect x="1100" y="380" width="7" height="11" fill="#90EE90" opacity="0.8" transform="rotate(-30 1103 385)"/>
  <circle cx="1300" cy="420" r="5" fill="#DDA0DD" opacity="0.8"/>
  <rect x="1500" y="400" width="8" height="10" fill="#FF69B4" opacity="0.8" transform="rotate(40 1504 405)"/>
  <circle cx="800" cy="300" r="6" fill="#87CEEB" opacity="0.8"/>
  <rect x="1200" y="320" width="7" height="12" fill="#FFD700" opacity="0.8" transform="rotate(-20 1203 326)"/>
</svg>