<svg viewBox="0 0 1920 1080" xmlns="http://www.w3.org/2000/svg">
  <defs>
    <linearGradient id="trendyBBQGradient" x1="0%" y1="0%" x2="0%" y2="100%">
      <stop offset="0%" style="stop-color:#ff9a56;stop-opacity:1" />
      <stop offset="100%" style="stop-color:#ffeaa7;stop-opacity:1" />
    </linearGradient>
  </defs>
  
  <rect width="1920" height="1080" fill="url(#trendyBBQGradient)"/>
  
  <!-- Modern rooftop deck -->
  <rect x="0" y="700" width="1920" height="380" fill="#2C3E50" opacity="0.7"/>
  
  <!-- Geometric deck pattern -->
  <rect x="0" y="700" width="150" height="150" fill="#34495E" opacity="0.5"/>
  <rect x="300" y="700" width="150" height="150" fill="#34495E" opacity="0.5"/>
  <rect x="600" y="700" width="150" height="150" fill="#34495E" opacity="0.5"/>
  <rect x="150" y="850" width="150" height="150" fill="#34495E" opacity="0.5"/>
  <rect x="450" y="850" width="150" height="150" fill="#34495E" opacity="0.5"/>
  
  <!-- Designer BBQ grill (sleek, modern) -->
  <g transform="translate(960, 850)">
    <ellipse cx="0" cy="60" rx="160" ry="35" fill="#000000" opacity="0.3"/>
    
    <!-- Matte black body -->
    <rect x="-150" y="-90" width="300" height="150" rx="10" fill="#1a1a1a"/>
    <ellipse cx="0" cy="-90" rx="150" ry="30" fill="#0a0a0a"/>
    
    <!-- Brushed steel accents -->
    <rect x="-145" y="-88" width="290" height="5" fill="#C0C0C0" opacity="0.8"/>
    <rect x="-145" y="55" width="290" height="5" fill="#C0C0C0" opacity="0.8"/>
    
    <!-- LED temperature display -->
    <rect x="-60" y="-100" width="120" height="40" rx="5" fill="#000000"/>
    <text x="-45" y="-72" font-family="Arial" font-size="24" fill="#00ff00">225°C</text>
    
    <!-- Control knobs (chrome) -->
    <circle cx="-100" cy="-50" r="12" fill="#C0C0C0"/>
    <circle cx="-100" cy="-50" r="8" fill="#E8E8E8"/>
    <circle cx="100" cy="-50" r="12" fill="#C0C0C0"/>
    <circle cx="100" cy="-50" r="8" fill="#E8E8E8"/>
    
    <!-- Grill grates (premium) -->
    <rect x="-130" y="-70" width="260" height="70" fill="#2C3E50" opacity="0.8"/>
    <line x1="-120" y1="-65" x2="-120" y2="-5" stroke="#7F8C8D" stroke-width="5"/>
    <line x1="-85" y1="-65" x2="-85" y2="-5" stroke="#7F8C8D" stroke-width="5"/>
    <line x1="-50" y1="-65" x2="-50" y2="-5" stroke="#7F8C8D" stroke-width="5"/>
    <line x1="-15" y1="-65" x2="-15" y2="-5" stroke="#7F8C8D" stroke-width="5"/>
    <line x1="20" y1="-65" x2="20" y2="-5" stroke="#7F8C8D" stroke-width="5"/>
    <line x1="55" y1="-65" x2="55" y2="-5" stroke="#7F8C8D" stroke-width="5"/>
    <line x1="90" y1="-65" x2="90" y2="-5" stroke="#7F8C8D" stroke-width="5"/>
    <line x1="125" y1="-65" x2="125" y2="-5" stroke="#7F8C8D" stroke-width="5"/>
    
    <!-- Artisan food -->
    <ellipse cx="-80" cy="-35" rx="22" ry="18" fill="#8B4513" opacity="0.9"/>
    <ellipse cx="-35" cy="-35" rx="22" ry="18" fill="#A0522D" opacity="0.9"/>
    <ellipse cx="35" cy="-35" rx="22" ry="18" fill="#8B4513" opacity="0.9"/>
    <ellipse cx="80" cy="-35" rx="22" ry="18" fill="#A0522D" opacity="0.9"/>
    
    <!-- Smoke (minimalist) -->
    <ellipse cx="0" cy="-120" rx="40" ry="30" fill="#E8E8E8" opacity="0.3"/>
    <ellipse cx="-20" cy="-140" rx="35" ry="25" fill="#E8E8E8" opacity="0.2"/>
    <ellipse cx="20" cy="-135" rx="38" ry="28" fill="#E8E8E8" opacity="0.2"/>
    
    <!-- Chrome wheels -->
    <circle cx="-130" cy="65" r="18" fill="#C0C0C0"/>
    <circle cx="-130" cy="65" r="12" fill="#E8E8E8"/>
    <circle cx="130" cy="65" r="18" fill="#C0C0C0"/>
    <circle cx="130" cy="65" r="12" fill="#E8E8E8"/>
  </g>
  
  <!-- Modern outdoor furniture set -->
  <g transform="translate(450, 900)">
    <!-- Minimalist table -->
    <ellipse cx="0" cy="0" rx="120" ry="30" fill="#FFFFFF" opacity="0.9"/>
    <rect x="-115" y="-80" width="230" height="15" fill="#F5F5F5"/>
    <ellipse cx="0" cy="-80" rx="115" ry="28" fill="#FFFFFF"/>
    
    <!-- Chrome base -->
    <rect x="-10" y="-65" width="20" height="65" fill="#C0C0C0"/>
    <circle cx="0" cy="-65" r="30" fill="#E8E8E8" opacity="0.8"/>
    
    <!-- Artisan plates -->
    <circle cx="-60" cy="-85" r="30" fill="#2C3E50" opacity="0.8"/>
    <circle cx="60" cy="-85" r="30" fill="#2C3E50" opacity="0.8"/>
    
    <!-- Minimalist cutlery -->
    <rect x="-90" y="-85" width="4" height="50" fill="#C0C0C0"/>
    <rect x="86" y="-85" width="4" height="50" fill="#C0C0C0"/>
  </g>
  
  <g transform="translate(1470, 900)">
    <ellipse cx="0" cy="0" rx="120" ry="30" fill="#FFFFFF" opacity="0.9"/>
    <rect x="-115" y="-80" width="230" height="15" fill="#F5F5F5"/>
    <ellipse cx="0" cy="-80" rx="115" ry="28" fill="#FFFFFF"/>
    
    <rect x="-10" y="-65" width="20" height="65" fill="#C0C0C0"/>
    <circle cx="0" cy="-65" r="30" fill="#E8E8E8" opacity="0.8"/>
    
    <circle cx="-60" cy="-85" r="30" fill="#2C3E50" opacity="0.8"/>
    <circle cx="60" cy="-85" r="30" fill="#2C3E50" opacity="0.8"/>
  </g>
  
  <!-- Designer drinks -->
  <g transform="translate(400, 950)">
    <rect x="-25" y="-70" width="50" height="80" rx="8" fill="#ff9a56" opacity="0.6"/>
    <ellipse cx="0" cy="-70" rx="25" ry="10" fill="#ffeaa7" opacity="0.5"/>
    
    <!-- Ice cubes (geometric) -->
    <rect x="-10" y="-55" width="8" height="8" fill="#FFFFFF" opacity="0.7"/>
    <rect x="3" y="-62" width="8" height="8" fill="#FFFFFF" opacity="0.7"/>
    
    <!-- Straw -->
    <rect x="15" y="-85" width="5" height="45" fill="#2C3E50"/>
  </g>
  
  <g transform="translate(1520, 950)">
    <rect x="-25" y="-70" width="50" height="80" rx="8" fill="#ffeaa7" opacity="0.6"/>
    <ellipse cx="0" cy="-70" rx="25" ry="10" fill="#ff9a56" opacity="0.5"/>
    
    <rect x="-10" y="-55" width="8" height="8" fill="#FFFFFF" opacity="0.7"/>
    <rect x="3" y="-62" width="8" height="8" fill="#FFFFFF" opacity="0.7"/>
    
    <rect x="15" y="-85" width="5" height="45" fill="#2C3E50"/>
  </g>
  
  <!-- String lights (Edison bulbs style) -->
  <g>
    <line x1="100" y1="650" x2="1820" y2="650" stroke="#2C3E50" stroke-width="3"/>
    
    <!-- Bulbs -->
    <g transform="translate(250, 650)">
      <rect x="-8" y="0" width="16" height="30" rx="8" fill="#FFD700" opacity="0.8"/>
      <ellipse cx="0" cy="35" rx="10" ry="5" fill="#C0C0C0"/>
    </g>
    <g transform="translate(500, 650)">
      <rect x="-8" y="0" width="16" height="30" rx="8" fill="#FFD700" opacity="0.8"/>
      <ellipse cx="0" cy="35" rx="10" ry="5" fill="#C0C0C0"/>
    </g>
    <g transform="translate(750, 650)">
      <rect x="-8" y="0" width="16" height="30" rx="8" fill="#FFD700" opacity="0.8"/>
      <ellipse cx="0" cy="35" rx="10" ry="5" fill="#C0C0C0"/>
    </g>
    <g transform="translate(1000, 650)">
      <rect x="-8" y="0" width="16" height="30" rx="8" fill="#FFD700" opacity="0.8"/>
      <ellipse cx="0" cy="35" rx="10" ry="5" fill="#C0C0C0"/>
    </g>
    <g transform="translate(1250, 650)">
      <rect x="-8" y="0" width="16" height="30" rx="8" fill="#FFD700" opacity="0.8"/>
      <ellipse cx="0" cy="35" rx="10" ry="5" fill="#C0C0C0"/>
    </g>
    <g transform="translate(1500, 650)">
      <rect x="-8" y="0" width="16" height="30" rx="8" fill="#FFD700" opacity="0.8"/>
      <ellipse cx="0" cy="35" rx="10" ry="5" fill="#C0C0C0"/>
    </g>
    <g transform="translate(1750, 650)">
      <rect x="-8" y="0" width="16" height="30" rx="8" fill="#FFD700" opacity="0.8"/>
      <ellipse cx="0" cy="35" rx="10" ry="5" fill="#C0C0C0"/>
    </g>
  </g>
  
  <!-- Modern planters with herbs -->
  <g transform="translate(250, 950)">
    <rect x="-40" y="-50" width="80" height="70" rx="5" fill="#2C3E50"/>
    <rect x="-38" y="-48" width="76" height="10" fill="#34495E"/>
    
    <!-- Herbs -->
    <line x1="-20" y1="-50" x2="-20" y2="-75" stroke="#228B22" stroke-width="3"/>
    <circle cx="-20" cy="-78" r="6" fill="#9ACD32"/>
    <line x1="0" y1="-50" x2="0" y2="-80" stroke="#228B22" stroke-width="3"/>
    <circle cx="0" cy="-83" r="6" fill="#9ACD32"/>
    <line x1="20" y1="-50" x2="20" y2="-72" stroke="#228B22" stroke-width="3"/>
    <circle cx="20" cy="-75" r="6" fill="#9ACD32"/>
  </g>
  
  <g transform="translate(1670, 950)">
    <rect x="-40" y="-50" width="80" height="70" rx="5" fill="#2C3E50"/>
    <rect x="-38" y="-48" width="76" height="10" fill="#34495E"/>
    
    <line x1="-20" y1="-50" x2="-20" y2="-75" stroke="#228B22" stroke-width="3"/>
    <circle cx="-20" cy="-78" r="6" fill="#9ACD32"/>
    <line x1="0" y1="-50" x2="0" y2="-80" stroke="#228B22" stroke-width="3"/>
    <circle cx="0" cy="-83" r="6" fill="#9ACD32"/>
    <line x1="20" y1="-50" x2="20" y2="-72" stroke="#228B22" stroke-width="3"/>
    <circle cx="20" cy="-75" r="6" fill="#9ACD32"/>
  </g>
  
  <!-- Bluetooth speaker (premium) -->
  <g transform="translate(700, 1000)">
    <rect x="-60" y="-35" width="120" height="50" rx="10" fill="#2C3E50"/>
    <circle cx="0" cy="-10" r="20" fill="#34495E"/>
    <circle cx="0" cy="-10" r="15" fill="#667eea" opacity="0.5"/>
    
    <!-- LED ring -->
    <circle cx="0" cy="-10" r="23" fill="none" stroke="#00ff00" stroke-width="2" opacity="0.6"/>
  </g>
  
  <!-- Sun (minimalist) -->
  <circle cx="1700" cy="200" r="80" fill="#FFD700" opacity="0.7"/>
  <circle cx="1700" cy="200" r="90" fill="#FFA500" opacity="0.3"/>
  
  <!-- Modern cloud -->
  <ellipse cx="300" cy="180" rx="100" ry="45" fill="#FFFFFF" opacity="0.5"/>
  
  <!-- City skyline silhouette (minimalist) -->
  <rect x="0" y="550" width="80" height="150" fill="#2C3E50" opacity="0.3"/>
  <rect x="100" y="580" width="60" height="120" fill="#2C3E50" opacity="0.3"/>
  <rect x="1760" y="560" width="70" height="140" fill="#2C3E50" opacity="0.3"/>
  <rect x="1850" y="590" width="70" height="110" fill="#2C3E50" opacity="0.3"/>
</svg>